<svg width="721" height="265" viewBox="0 0 721 265" fill="none" xmlns="http://www.w3.org/2000/svg">
<g clip-path="url(#clip0_235_34)">
<path d="M193.469 29.7078C192.571 29.3986 191.64 29.1061 190.682 28.8294C190.839 28.1866 190.984 27.552 191.112 26.9283C193.222 16.6862 191.843 8.43503 187.132 5.71841C182.615 3.11353 175.227 5.82954 167.766 12.3226C167.049 12.9469 166.329 13.608 165.61 14.3008C165.131 13.8424 164.653 13.3994 164.176 12.9757C156.356 6.03298 148.519 3.10721 143.812 5.83169C139.3 8.44413 137.963 16.201 139.862 25.9075C140.046 26.8451 140.26 27.8025 140.503 28.776C139.393 29.0908 138.323 29.4265 137.298 29.7836C128.131 32.9797 122.276 37.9888 122.276 43.1846C122.276 48.5508 128.561 53.9332 138.109 57.1968C138.863 57.4543 139.645 57.6978 140.451 57.929C140.189 58.9819 139.962 60.0136 139.771 61.0199C137.96 70.5579 139.374 78.1315 143.875 80.7275C148.524 83.4083 156.326 80.6527 163.923 74.0118C164.524 73.4868 165.126 72.9301 165.73 72.3466C166.512 73.1001 167.294 73.8132 168.071 74.4821C175.43 80.8147 182.698 83.3718 187.194 80.7686C191.839 78.0801 193.348 69.9442 191.388 60.0456C191.239 59.2896 191.065 58.5173 190.869 57.7313C191.417 57.5693 191.955 57.4021 192.479 57.2282C202.406 53.9393 208.864 48.6224 208.864 43.1846C208.864 37.97 202.821 32.9272 193.469 29.7078ZM191.316 53.7171C190.843 53.8738 190.357 54.0253 189.862 54.1722C188.766 50.703 187.287 47.014 185.477 43.2026C187.204 39.482 188.626 35.8402 189.691 32.3934C190.577 32.6498 191.437 32.9201 192.265 33.2054C200.278 35.9638 205.165 40.0421 205.165 43.1846C205.165 46.5319 199.887 50.8771 191.316 53.7171ZM187.76 60.764C188.626 65.141 188.75 69.0984 188.176 72.192C187.66 74.9718 186.623 76.8252 185.341 77.5674C182.612 79.1469 176.777 77.0938 170.483 71.6781C169.762 71.0573 169.035 70.3944 168.306 69.6928C170.746 67.0245 173.184 63.9224 175.564 60.4772C179.75 60.1057 183.705 59.4985 187.291 58.6694C187.468 59.382 187.625 60.0808 187.76 60.764ZM151.796 77.2945C149.13 78.236 147.007 78.263 145.723 77.5229C142.992 75.9476 141.856 69.8667 143.405 61.7097C143.582 60.7756 143.794 59.816 144.037 58.8351C147.584 59.6195 151.51 60.1839 155.706 60.524C158.102 63.8952 160.61 66.9939 163.139 69.7072C162.586 70.2404 162.036 70.7481 161.489 71.2265C158.129 74.1631 154.763 76.2466 151.796 77.2945ZM139.306 53.6966C135.084 52.2535 131.597 50.3779 129.207 48.3313C127.059 46.4921 125.975 44.6662 125.975 43.1846C125.975 40.0316 130.676 36.01 138.516 33.2766C139.467 32.9449 140.463 32.6323 141.496 32.3387C142.58 35.8633 144.001 39.5483 145.716 43.2746C143.979 47.0562 142.537 50.7999 141.443 54.3658C140.706 54.154 139.993 53.9312 139.306 53.6966ZM143.493 25.1972C141.865 16.8808 142.946 10.6073 145.666 9.03304C148.562 7.356 154.968 9.74711 161.719 15.7418C162.151 16.125 162.584 16.526 163.019 16.9409C160.503 19.6423 158.017 22.7177 155.642 26.069C151.57 26.4465 147.672 27.0528 144.088 27.8648C143.863 26.9583 143.663 26.0678 143.493 25.1972ZM180.843 34.4199C179.986 32.94 179.106 31.495 178.21 30.0896C180.972 30.4388 183.619 30.9024 186.105 31.4698C185.359 33.8615 184.429 36.3622 183.334 38.9258C182.548 37.4346 181.718 35.9311 180.843 34.4199ZM165.612 19.5845C167.318 21.4329 169.026 23.4967 170.707 25.7358C169.013 25.6558 167.299 25.6142 165.57 25.6142C163.858 25.6142 162.156 25.6549 160.473 25.7335C162.155 23.5152 163.879 21.4542 165.612 19.5845ZM150.283 34.4455C149.427 35.9296 148.611 37.4249 147.838 38.923C146.761 36.3684 145.84 33.8563 145.087 31.4306C147.557 30.8778 150.192 30.4257 152.937 30.0831C152.028 31.5015 151.141 32.9571 150.283 34.4452V34.4455ZM153.016 56.5499C150.18 56.2335 147.506 55.8047 145.036 55.2671C145.801 52.7982 146.742 50.2324 147.842 47.6228C148.618 49.1198 149.436 50.6157 150.297 52.1031H150.297C151.175 53.6183 152.083 55.1025 153.016 56.5499ZM165.714 67.0454C163.961 65.1538 162.212 63.0614 160.504 60.8107C162.162 60.8758 163.852 60.909 165.57 60.909C167.335 60.909 169.08 60.8693 170.797 60.7928C169.111 63.0841 167.408 65.1797 165.714 67.0454ZM183.369 47.4898C184.526 50.1276 185.502 52.68 186.277 55.1068C183.766 55.6796 181.056 56.1409 178.2 56.4836C179.098 55.0592 179.986 53.5895 180.858 52.0776C181.74 50.5481 182.577 49.0162 183.369 47.4898ZM177.654 50.2297C176.3 52.5765 174.91 54.8169 173.5 56.9317C170.93 57.1154 168.276 57.21 165.57 57.21C162.876 57.21 160.255 57.1263 157.731 56.9625C156.263 54.82 154.843 52.573 153.498 50.2499H153.499C152.157 47.933 150.923 45.5966 149.804 43.2733C150.922 40.9447 152.154 38.6056 153.487 36.293L153.487 36.2934C154.824 33.9746 156.232 31.7386 157.686 29.6095C160.261 29.4148 162.901 29.3132 165.57 29.3132H165.57C168.251 29.3132 170.895 29.4156 173.469 29.6119C174.901 31.7255 176.299 33.9543 177.641 36.2734C178.999 38.6186 180.246 40.942 181.374 43.2208C180.25 45.5387 179.005 47.8856 177.654 50.2297ZM185.284 8.923C188.184 10.5951 189.311 17.3387 187.49 26.1817C187.373 26.746 187.242 27.3207 187.1 27.9031C183.508 27.0742 179.607 26.4574 175.523 26.0743C173.144 22.6861 170.678 19.6059 168.203 16.9392C168.869 16.2992 169.533 15.6888 170.195 15.1128C176.587 9.54967 182.562 7.35322 185.284 8.923ZM165.57 35.4525C169.84 35.4525 173.302 38.9142 173.302 43.1846C173.302 47.4548 169.84 50.9166 165.57 50.9166C161.3 50.9166 157.838 47.4548 157.838 43.1846C157.838 38.9142 161.3 35.4525 165.57 35.4525Z" fill="#7B4AE2" fill-opacity="0.5"/>
</g>
<g clip-path="url(#clip1_235_34)">
<path d="M676.889 85.5532L646.644 77.1569L639.855 1.00269H714.017L707.22 77.1444L676.889 85.5532Z" stroke="#7B4AE2" stroke-opacity="0.5" stroke-width="2"/>
<path fill-rule="evenodd" clip-rule="evenodd" d="M696.498 64.6238L696.641 63.009L698.887 37.8456L699.121 35.279H664.288L663.415 25.4913H676.919H699.96L700.182 23.3429L700.618 18.4974L700.846 15.9331H676.919H652.969L653.198 18.4974L655.547 44.837H676.936H688.673L687.563 57.2331L676.934 60.102L666.249 57.2392L665.569 49.6162H660.396H655.974L657.313 64.6238L676.892 70.0591L696.498 64.6238Z" fill="#7B4AE2" fill-opacity="0.5"/>
</g>
<path fill-rule="evenodd" clip-rule="evenodd" d="M513.276 0.00268555L520.225 77.9349L551.406 86.5909L582.673 77.9221L589.628 0.00268555H513.276ZM576.75 73.019L551.516 79.9608L551.516 70.0414L551.44 70.0593L531.828 64.6289L530.489 49.6314H540.084L540.781 57.2441L551.443 60.1074L551.516 60.0963L551.516 24.905H528.331L527.484 15.361H551.419H551.516V6.49291H582.662L576.75 73.019ZM529.181 35.1247L530.018 44.6687L551.516 44.6687V35.1247V35.1247V25.5652L529.181 35.1247Z" fill="#7B4AE2" fill-opacity="0.5"/>
<path fill-rule="evenodd" clip-rule="evenodd" d="M553.057 24.9051L551.516 25.5654V35.1249L551.516 44.6687H563.189L562.128 57.1467L551.516 60.1046V70.0489L571.064 64.6186L573.638 35.1247H551.517L574.505 24.9051L575.326 15.3611H551.516V24.7854V24.9051H553.057Z" fill="#7B4AE2" fill-opacity="0.5"/>
<g clip-path="url(#clip2_235_34)">
<path fill-rule="evenodd" clip-rule="evenodd" d="M463.1 0.00268555H390.041C386.305 0.00268555 383.276 3.03135 383.276 6.76739V79.8262C383.276 83.5623 386.305 86.5909 390.041 86.5909H463.1C466.836 86.5909 469.864 83.5623 469.864 79.8262V6.76739C469.864 3.03135 466.836 0.00268555 463.1 0.00268555ZM434.187 77.1525V67.8104C435.881 69.2313 437.722 70.2968 439.709 71.0071C441.696 71.7177 443.702 72.0728 445.728 72.0728C446.916 72.0728 447.953 71.9656 448.839 71.7515C449.725 71.5374 450.466 71.2408 451.06 70.8613C451.654 70.4818 452.097 70.034 452.389 69.5185C452.681 69.0027 452.827 68.4429 452.827 67.8398C452.827 67.0223 452.594 66.2924 452.126 65.6501C451.659 65.0078 451.021 64.4142 450.213 63.8693C449.404 63.3244 448.445 62.7991 447.335 62.2931C446.224 61.7868 445.026 61.2713 443.741 60.7457C440.468 59.3833 438.029 57.7192 436.422 55.7537C434.815 53.7878 434.011 51.4134 434.011 48.6304C434.011 46.4505 434.45 44.5774 435.326 43.0107C436.203 41.444 437.396 40.1546 438.905 39.1423C440.415 38.1303 442.163 37.3858 444.15 36.9092C446.137 36.4323 448.24 36.1939 450.461 36.1939C452.642 36.1939 454.576 36.3251 456.261 36.5879C457.945 36.8507 459.499 37.2546 460.921 37.7995V46.5283C460.22 46.0419 459.455 45.6137 458.627 45.244C457.799 44.874 456.947 44.5675 456.071 44.3244C455.194 44.0808 454.322 43.9009 453.456 43.7842C452.589 43.6675 451.766 43.609 450.987 43.609C449.916 43.609 448.941 43.7111 448.065 43.9154C447.188 44.1201 446.448 44.4069 445.845 44.7769C445.241 45.1466 444.773 45.5894 444.442 46.1052C444.111 46.621 443.945 47.1997 443.945 47.842C443.945 48.5428 444.13 49.1703 444.5 49.725C444.87 50.2797 445.396 50.8053 446.078 51.3015C446.76 51.798 447.588 52.2844 448.562 52.7613C449.536 53.2382 450.636 53.7293 451.863 54.2357C453.538 54.9362 455.043 55.6806 456.378 56.4687C457.712 57.2571 458.856 58.1474 459.81 59.1401C460.765 60.1325 461.495 61.2662 462.002 62.541C462.508 63.8158 462.761 65.3 462.761 66.9932C462.761 69.3287 462.318 71.2895 461.432 72.8755C460.546 74.4618 459.343 75.7464 457.824 76.7293C456.305 77.7119 454.537 78.4175 452.521 78.8457C450.505 79.2739 448.377 79.488 446.137 79.488C443.838 79.488 441.652 79.2935 439.577 78.9042C437.503 78.5149 435.706 77.9311 434.187 77.1525ZM430.629 44.5625H418.616V78.8115H409.099V44.5625H397.144V36.8703H430.629V44.5625Z" fill="#7B4AE2" fill-opacity="0.5"/>
</g>
<path fill-rule="evenodd" clip-rule="evenodd" d="M253.291 9.01733C253.291 4.59906 256.873 1.01733 261.291 1.01733H329.85C334.268 1.01733 337.85 4.59905 337.85 9.01733V77.5761C337.85 81.9944 334.268 85.5761 329.85 85.5761H261.291C256.873 85.5761 253.291 81.9944 253.291 77.5761V9.01733ZM275.524 71.6808C275.524 71.6808 275.524 71.6808 275.525 71.6808L275.525 71.6808C277.398 75.6536 281.088 78.9455 287.444 78.9455C294.483 78.9455 299.307 75.1993 299.307 66.9689V43.8112C299.307 41.6169 297.528 39.838 295.334 39.838V39.838C293.14 39.838 291.361 41.6169 291.361 43.8112V66.8566C291.361 70.8295 289.715 71.8509 287.103 71.8509V71.8509C283.306 71.8509 279.308 69.3913 276.059 71.3574L275.525 71.6808L275.525 71.6807C275.525 71.6806 275.524 71.6807 275.524 71.6808V71.6808ZM312.49 70.0094C310.882 68.6387 308.635 67.9276 306.807 68.986V68.986C305.021 70.0204 304.313 72.3206 305.678 73.8689C308.343 76.8906 312.458 78.9462 318.097 78.9462C325.646 78.9462 331.266 75.0301 331.266 67.8777C331.266 61.2369 327.463 58.2857 320.708 55.3907L318.722 54.5393C315.316 53.0634 313.84 52.0982 313.84 49.7142C313.84 47.7847 315.316 46.3089 317.643 46.3089C318.613 46.3089 319.437 46.4848 320.17 46.8762C322.029 47.8699 324.25 48.7516 326.025 47.6124V47.6124C327.659 46.5629 328.241 44.3582 326.911 42.9426C324.531 40.4099 321.501 39.3837 317.643 39.3837C310.548 39.3837 306.007 43.9248 306.007 49.8847C306.007 56.3556 309.81 59.4206 315.543 61.8609L317.529 62.7129C321.162 64.3017 323.319 65.2667 323.319 67.9913C323.319 70.2618 321.219 71.908 317.927 71.908C315.594 71.908 313.866 71.1832 312.49 70.0094Z" fill="#7B4AE2" fill-opacity="0.5"/>
<g clip-path="url(#clip3_235_34)">
<path d="M17.318 9.00269H0L43.295 82.898L86.59 9.00269H69.4885H53.4693L43.295 26.1378L33.3371 9.00269H17.318Z" fill="#41B883"/>
<path d="M86.59 9.00269L43.295 82.898L0 9.00269H17.318L43.295 53.3399L69.4885 9.00269H86.59Z" fill="#6A40D5"/>
<path d="M69.4885 9.00269L43.295 53.5541L17.318 9.00269H33.3371L43.295 26.1378L53.4693 9.00269H69.4885Z" fill="#4A318A"/>
</g>
<g clip-path="url(#clip4_235_34)">
<path fill-rule="evenodd" clip-rule="evenodd" d="M400.976 177.003C393.009 177.003 386.544 183.468 386.544 191.434C386.544 199.4 393.009 205.865 400.976 205.865C393.009 205.865 386.544 212.331 386.544 220.297C386.544 228.263 393.009 234.728 400.976 234.728C393.009 234.728 386.544 241.193 386.544 249.16C386.544 257.126 393.009 263.591 400.976 263.591C408.942 263.591 415.407 257.126 415.407 249.16L415.407 220.297C415.407 228.263 421.872 234.728 429.838 234.728C437.804 234.728 444.27 228.263 444.27 220.297C444.27 212.331 437.804 205.865 429.838 205.865C437.804 205.865 444.27 199.4 444.27 191.434C444.27 183.468 437.804 177.003 429.838 177.003H400.976ZM429.838 205.865H415.407L415.407 220.297C415.407 212.331 421.872 205.865 429.838 205.865Z" fill="#7B4AE2" fill-opacity="0.5"/>
</g>
<path fill-rule="evenodd" clip-rule="evenodd" d="M545.177 179.444C521.829 179.444 502.897 198.373 502.897 221.724C502.897 240.404 515.011 256.252 531.811 261.843C533.924 262.234 534.699 260.926 534.699 259.809C534.699 258.801 534.66 255.47 534.642 251.937C522.88 254.495 520.398 246.949 520.398 246.949C518.474 242.062 515.703 240.762 515.703 240.762C511.867 238.138 515.992 238.192 515.992 238.192C520.238 238.49 522.474 242.549 522.474 242.549C526.244 249.013 532.364 247.144 534.777 246.064C535.156 243.331 536.252 241.466 537.461 240.41C528.07 239.341 518.198 235.716 518.198 219.515C518.198 214.899 519.85 211.128 522.555 208.167C522.116 207.102 520.669 202.802 522.964 196.978C522.964 196.978 526.515 195.842 534.594 201.312C537.967 200.375 541.584 199.905 545.177 199.889C548.77 199.905 552.39 200.375 555.768 201.312C563.838 195.842 567.384 196.978 567.384 196.978C569.685 202.802 568.237 207.102 567.798 208.167C570.509 211.128 572.149 214.899 572.149 219.515C572.149 235.754 562.259 239.33 552.844 240.377C554.36 241.689 555.712 244.262 555.712 248.206C555.712 253.863 555.663 258.416 555.663 259.809C555.663 260.934 556.424 262.252 558.567 261.837C575.357 256.24 587.456 240.398 587.456 221.724C587.456 198.373 568.526 179.444 545.177 179.444ZM518.732 239.672C518.639 239.882 518.309 239.945 518.008 239.801C517.701 239.663 517.529 239.377 517.628 239.166C517.719 238.95 518.05 238.89 518.356 239.034C518.664 239.172 518.839 239.462 518.732 239.672ZM520.812 241.528C520.61 241.715 520.216 241.628 519.949 241.333C519.672 241.038 519.62 240.644 519.825 240.454C520.033 240.267 520.415 240.355 520.692 240.649C520.969 240.948 521.023 241.339 520.812 241.528ZM522.239 243.902C521.98 244.082 521.556 243.913 521.294 243.537C521.035 243.161 521.035 242.711 521.3 242.53C521.562 242.349 521.98 242.512 522.245 242.885C522.503 243.267 522.503 243.718 522.239 243.902ZM524.652 246.652C524.42 246.908 523.926 246.839 523.565 246.49C523.195 246.149 523.092 245.665 523.325 245.41C523.559 245.154 524.056 245.226 524.42 245.572C524.787 245.912 524.899 246.399 524.652 246.652ZM527.77 247.58C527.668 247.911 527.192 248.062 526.714 247.921C526.235 247.776 525.922 247.388 526.019 247.054C526.118 246.721 526.596 246.564 527.078 246.714C527.556 246.858 527.869 247.244 527.77 247.58ZM531.319 247.974C531.331 248.323 530.925 248.612 530.422 248.618C529.917 248.629 529.508 248.347 529.502 248.004C529.502 247.652 529.899 247.366 530.405 247.357C530.907 247.347 531.319 247.627 531.319 247.974ZM534.805 247.84C534.866 248.181 534.516 248.53 534.017 248.623C533.526 248.713 533.072 248.503 533.01 248.165C532.949 247.817 533.304 247.467 533.794 247.377C534.294 247.29 534.742 247.495 534.805 247.84Z" fill="#7B4AE2" fill-opacity="0.5"/>
<path fill-rule="evenodd" clip-rule="evenodd" d="M716.721 216.851L678.915 179.048C676.739 176.87 673.208 176.87 671.029 179.048L663.179 186.898L673.138 196.857C675.452 196.075 678.106 196.599 679.951 198.445C681.804 200.301 682.325 202.977 681.524 205.299L691.122 214.897C693.444 214.097 696.123 214.615 697.977 216.472C700.569 219.063 700.569 223.262 697.977 225.855C695.385 228.448 691.185 228.448 688.592 225.855C686.642 223.904 686.16 221.04 687.147 218.638L678.197 209.688L678.196 233.242C678.828 233.556 679.424 233.973 679.951 234.497C682.542 237.088 682.542 241.287 679.951 243.882C677.358 246.474 673.157 246.474 670.568 243.882C667.976 241.287 667.976 237.088 670.568 234.497C671.208 233.858 671.949 233.374 672.74 233.049V209.275C671.949 208.952 671.209 208.472 670.568 207.828C668.604 205.867 668.132 202.985 669.138 200.574L659.322 190.756L633.399 216.677C631.22 218.856 631.22 222.387 633.399 224.565L671.205 262.37C673.382 264.547 676.912 264.547 679.092 262.37L716.721 224.741C718.899 222.562 718.899 219.029 716.721 216.851Z" fill="#7B4AE2" fill-opacity="0.5"/>
<path d="M75.5608 225.83C72.5399 225.846 69.9145 226.584 67.716 227.673C66.9094 226.055 66.1028 224.612 65.9605 223.555C65.8023 222.32 65.6125 221.567 65.8023 220.093C65.9921 218.618 66.8462 216.519 66.8303 216.358C66.8145 216.198 66.6405 215.445 64.9008 215.429C63.161 215.413 61.6585 215.765 61.4845 216.23C61.3106 216.695 60.9784 217.753 60.757 218.843C60.4565 220.445 57.2775 226.167 55.4586 229.164C54.8734 227.994 54.3673 226.968 54.2566 226.151C54.0985 224.917 53.9087 224.164 54.0985 222.689C54.2882 221.215 55.1423 219.115 55.1265 218.955C55.1107 218.795 54.9367 218.041 53.1969 218.025C51.4572 218.009 49.9547 218.362 49.7807 218.827C49.6067 219.291 49.4169 220.381 49.0532 221.439C48.6894 222.497 44.4665 232.049 43.3594 234.517C42.79 235.783 42.2997 236.793 41.9518 237.482C41.9518 237.482 41.936 237.53 41.8885 237.61C41.588 238.203 41.414 238.524 41.414 238.524C41.414 238.524 41.414 238.524 41.414 238.54C41.1768 238.972 40.9237 239.373 40.7972 239.373C40.7023 239.373 40.5283 238.219 40.8288 236.648C41.4615 233.331 42.964 228.17 42.9482 227.994C42.9482 227.898 43.2329 227 41.9676 226.536C40.7339 226.071 40.2911 226.84 40.1804 226.84C40.0697 226.84 39.9906 227.113 39.9906 227.113C39.9906 227.113 41.3666 221.311 37.3651 221.311C34.8662 221.311 31.4183 224.083 29.7102 226.584C28.6347 227.177 26.3414 228.443 23.8899 229.805C22.9568 230.334 21.992 230.863 21.0905 231.36C21.0272 231.296 20.9639 231.215 20.9007 231.151C16.061 225.91 7.10912 222.208 7.48871 215.172C7.63105 212.608 8.50093 205.877 24.6807 197.703C37.9978 191.052 48.5945 192.895 50.4291 196.982C53.0546 202.816 44.7512 213.65 30.9913 215.221C25.7404 215.814 22.9884 213.762 22.2925 212.993C21.5649 212.191 21.4542 212.143 21.1854 212.304C20.7425 212.544 21.0272 213.265 21.1854 213.682C21.5966 214.772 23.2889 216.695 26.1516 217.641C28.6821 218.474 34.8346 218.939 42.2839 216.022C50.6189 212.752 57.1351 203.665 55.2214 196.052C53.3077 188.327 40.6549 185.779 28.6821 190.09C21.5649 192.655 13.8467 196.693 8.29532 201.95C1.70005 208.201 0.656195 213.634 1.08323 215.91C2.61738 223.987 13.6095 229.244 18.0063 233.139C17.7849 233.267 17.5793 233.379 17.4053 233.475C15.2069 234.581 6.82443 239.02 4.73672 243.716C2.36432 249.037 5.11631 252.852 6.93515 253.365C12.5815 254.951 18.3859 252.098 21.5017 247.387C24.6174 242.675 24.2378 236.552 22.7986 233.748C22.7828 233.716 22.767 233.684 22.7353 233.651C23.3047 233.315 23.8899 232.962 24.4593 232.626C25.5822 231.953 26.6893 231.328 27.6383 230.815C27.1005 232.305 26.7051 234.084 26.5154 236.648C26.2781 239.662 27.4959 243.572 29.0934 245.111C29.8051 245.784 30.6433 245.8 31.1811 245.8C33.0474 245.8 33.8856 244.229 34.8188 242.37C35.9575 240.094 36.9855 237.45 36.9855 237.45C36.9855 237.45 35.7044 244.598 39.184 244.598C40.4492 244.598 41.7303 242.931 42.2997 242.082V242.098C42.2997 242.098 42.3314 242.05 42.3946 241.937C42.5211 241.729 42.6002 241.601 42.6002 241.601V241.569C43.1063 240.671 44.2451 238.636 45.9374 235.254C48.12 230.895 50.2235 225.446 50.2235 225.446C50.2235 225.446 50.4133 226.776 51.0618 228.988C51.4414 230.286 52.2322 231.712 52.8648 233.091C52.3587 233.812 52.0424 234.212 52.0424 234.212C52.0424 234.212 52.0424 234.212 52.0582 234.228C51.647 234.773 51.2041 235.366 50.7138 235.943C48.9899 238.027 46.9338 240.415 46.6491 241.104C46.317 241.921 46.3961 242.514 47.0287 242.995C47.4874 243.348 48.3098 243.396 49.148 243.348C50.698 243.236 51.7893 242.851 52.3271 242.61C53.1653 242.306 54.1459 241.841 55.0632 241.152C56.7555 239.886 57.7836 238.075 57.6887 235.687C57.6412 234.373 57.2142 233.058 56.6923 231.824C56.8504 231.6 56.9928 231.376 57.1509 231.151C59.8238 227.193 61.8957 222.849 61.8957 222.849C61.8957 222.849 62.0855 224.18 62.734 226.391C63.0503 227.513 63.6988 228.731 64.2681 229.917C61.7534 231.985 60.2034 234.389 59.6499 235.959C58.6535 238.876 59.4284 240.19 60.8993 240.495C61.5636 240.639 62.5126 240.319 63.2085 240.014C64.0942 239.726 65.138 239.229 66.1344 238.492C67.8267 237.225 69.4558 235.463 69.3609 233.075C69.3134 231.985 69.0288 230.911 68.6334 229.869C70.7685 228.972 73.5205 228.475 77.0317 228.891C84.5601 229.789 86.0468 234.549 85.7621 236.552C85.4774 238.556 83.8958 239.646 83.3739 239.982C82.8519 240.319 82.678 240.431 82.7254 240.671C82.7887 241.024 83.0417 241.008 83.4846 240.944C84.1014 240.832 87.4386 239.325 87.5809 235.639C87.8182 230.927 83.3897 225.782 75.5608 225.83ZM17.4844 245.672C14.9855 248.428 11.506 249.47 10.0035 248.589C8.39022 247.643 9.02286 243.572 12.0912 240.655C13.9575 238.876 16.3615 237.225 17.9589 236.216C18.3227 235.991 18.8604 235.671 19.5089 235.27C19.6196 235.206 19.6828 235.174 19.6828 235.174C19.8094 235.094 19.9359 235.014 20.0624 234.934C21.1854 239.101 20.1099 242.771 17.4844 245.672ZM35.6728 233.139C34.8029 235.286 32.9841 240.783 31.877 240.479C30.928 240.222 30.3428 236.056 31.6872 231.937C32.3673 229.869 33.8065 227.401 34.6448 226.439C36.005 224.901 37.5075 224.388 37.8712 225.013C38.3299 225.83 36.2106 231.792 35.6728 233.139ZM50.6822 240.415C50.3184 240.607 49.9705 240.735 49.8123 240.639C49.7016 240.575 49.9705 240.319 49.9705 240.319C49.9705 240.319 51.8526 238.267 52.5959 237.338C53.023 236.793 53.5291 236.152 54.0668 235.43V235.639C54.0668 238.091 51.7261 239.742 50.6822 240.415ZM62.2595 237.738C61.9906 237.546 62.0381 236.905 62.9396 234.902C63.2876 234.116 64.11 232.802 65.5176 231.536C65.6758 232.049 65.7865 232.546 65.7707 233.01C65.7549 236.104 63.5722 237.258 62.2595 237.738Z" fill="#452E81"/>
<path d="M171.386 194.615C157.402 195.06 153.245 205.049 152.293 210.461C153.534 208.455 157.445 204.054 163.203 204.054C169.914 204.054 175.023 211.544 178.14 213.882C181.927 216.722 189.537 220.472 199.528 217.432C207.494 215.007 211.188 206.55 211.997 202.538C208.143 207.777 202.298 210.924 195.068 207.214C190.089 204.66 186.366 194.139 171.386 194.615Z" fill="#412C7C"/>
<path d="M151.6 218.384C137.616 218.829 133.459 228.818 132.507 234.23C133.748 232.224 137.659 227.822 143.417 227.822C150.128 227.822 155.237 235.312 158.354 237.65C162.141 240.491 169.751 244.241 179.742 241.201C187.708 238.776 191.403 230.319 192.211 226.307C188.357 231.546 182.513 234.692 175.282 230.983C170.303 228.429 166.58 217.908 151.6 218.384Z" fill="#412C7C"/>
<g clip-path="url(#clip5_235_34)">
<path d="M261.552 195.02C261.389 190.329 265.044 186.003 269.985 186.003H320.612C325.552 186.003 329.207 190.329 329.044 195.02C328.887 199.527 329.091 205.365 330.56 210.124C332.034 214.899 334.519 217.917 338.59 218.305V222.702C334.519 223.09 332.034 226.108 330.56 230.882C329.091 235.642 328.887 241.48 329.044 245.987C329.207 250.678 325.552 255.004 320.612 255.004H269.985C265.044 255.004 261.389 250.678 261.552 245.987C261.709 241.48 261.505 235.642 260.036 230.882C258.562 226.108 256.071 223.09 252 222.702V218.305C256.071 217.917 258.562 214.899 260.036 210.124C261.505 205.365 261.709 199.527 261.552 195.02Z" fill="#412C7C"/>
<g filter="url(#filter0_d_235_34)">
<path d="M297.173 238.846C305.172 238.846 309.992 234.929 309.992 228.469C309.992 223.586 306.553 220.051 301.446 219.492V219.288C305.198 218.678 308.142 215.193 308.142 211.302C308.142 205.758 303.765 202.146 297.095 202.146H282.087V238.846H297.173ZM287.923 206.801H295.688C299.909 206.801 302.306 208.683 302.306 212.091C302.306 215.728 299.518 217.762 294.463 217.762H287.923V206.801ZM287.923 234.192V222.111H295.635C301.159 222.111 304.025 224.146 304.025 228.113C304.025 232.081 301.237 234.192 295.974 234.192H287.923Z" fill="#090E16"/>
<path d="M297.173 238.846C305.172 238.846 309.992 234.929 309.992 228.469C309.992 223.586 306.553 220.051 301.446 219.492V219.288C305.198 218.678 308.142 215.193 308.142 211.302C308.142 205.758 303.765 202.146 297.095 202.146H282.087V238.846H297.173ZM287.923 206.801H295.688C299.909 206.801 302.306 208.683 302.306 212.091C302.306 215.728 299.518 217.762 294.463 217.762H287.923V206.801ZM287.923 234.192V222.111H295.635C301.159 222.111 304.025 224.146 304.025 228.113C304.025 232.081 301.237 234.192 295.974 234.192H287.923Z" stroke="#090E16"/>
</g>
</g>
<defs>
<filter id="filter0_d_235_34" x="265.587" y="189.646" width="60.905" height="69.6992" filterUnits="userSpaceOnUse" color-interpolation-filters="sRGB">
<feFlood flood-opacity="0" result="BackgroundImageFix"/>
<feColorMatrix in="SourceAlpha" type="matrix" values="0 0 0 0 0 0 0 0 0 0 0 0 0 0 0 0 0 0 127 0" result="hardAlpha"/>
<feOffset dy="4"/>
<feGaussianBlur stdDeviation="8"/>
<feColorMatrix type="matrix" values="0 0 0 0 0 0 0 0 0 0 0 0 0 0 0 0 0 0 0.15 0"/>
<feBlend mode="normal" in2="BackgroundImageFix" result="effect1_dropShadow_235_34"/>
<feBlend mode="normal" in="SourceGraphic" in2="effect1_dropShadow_235_34" result="shape"/>
</filter>
<clipPath id="clip0_235_34">
<rect width="86.5882" height="86.5882" fill="white" transform="translate(122.276 0.00268555)"/>
</clipPath>
<clipPath id="clip1_235_34">
<rect width="86.5882" height="86.5882" fill="white" transform="translate(633.688 0.00268555)"/>
</clipPath>
<clipPath id="clip2_235_34">
<rect width="86.5882" height="86.5882" fill="white" transform="translate(383.276 0.00268555)"/>
</clipPath>
<clipPath id="clip3_235_34">
<rect width="86.59" height="73.9623" fill="white" transform="matrix(-1 0 0 1 86.59 9.00269)"/>
</clipPath>
<clipPath id="clip4_235_34">
<rect width="86.5882" height="86.5882" fill="white" transform="translate(372 177.003)"/>
</clipPath>
<clipPath id="clip5_235_34">
<rect width="86.59" height="69.0014" fill="white" transform="translate(252 186.003)"/>
</clipPath>
</defs>
</svg>
